<svg width="64" height="64" xmlns="http://www.w3.org/2000/svg" xml:space="preserve" enable-background="new 0 0 1224 792"
     version="1.1">

 <g>
   <path stroke="null" id="accessible_icon_project"
         d="m53.6162,29.30491c-0.69341,-0.71148 -1.6623,-1.08712 -2.65238,-1.03292l-11.98302,0.66703l6.59455,-7.51057c0.93946,-1.06986 1.20786,-2.49604 0.84465,-3.77045c-0.19167,-0.87327 -0.72051,-1.66784 -1.53297,-2.17549c-0.02495,-0.0178 -15.76321,-9.16053 -15.76321,-9.16053c-1.28514,-0.74654 -2.90451,-0.58206 -4.01354,0.40712l-7.68793,6.85776c-1.41643,1.2634 -1.54048,3.43586 -0.27699,4.85238c1.26358,1.41634 3.43613,1.54075 4.85247,0.2769l5.82851,-5.19913l4.81839,2.79807l-8.50521,9.6866c-3.52682,0.57518 -6.70008,2.20036 -9.19112,4.54355l4.4415,4.4415c2.0078,-1.82561 4.67368,-2.93992 7.59491,-2.93992c6.23089,0 11.30016,5.06936 11.30016,11.30034c0,2.92123 -1.11431,5.58694 -2.93974,7.59473l4.44123,4.4415c2.95862,-3.14518 4.77439,-7.37722 4.77439,-12.03623c0,-2.77571 -0.6444,-5.40064 -1.79019,-7.73479l4.63835,-0.25839l-1.12835,13.84056c-0.15428,1.8918 1.25455,3.55025 3.14644,3.70471c0.09472,0.00769 0.18925,0.01136 0.28289,0.01136c1.77141,0 3.27532,-1.36116 3.42164,-3.1577l1.44827,-17.77003c0.08085,-0.99017 -0.27064,-1.96666 -0.9637,-2.67796z"/>
     <path stroke="null" id="svg_3"
           d="m47.2507,14.58258c3.17711,0 5.7524,-2.57555 5.7524,-5.75284c0,-3.17711 -2.57528,-5.75293 -5.7524,-5.75293c-3.17747,0 -5.75293,2.57582 -5.75293,5.75293c0,3.17729 2.57537,5.75284 5.75293,5.75284z"/>
     <path stroke="null" id="svg_4"
           d="m26.9849,54.6474c-6.23098,0 -11.30034,-5.06936 -11.30034,-11.30034c0,-2.34829 0.72051,-4.53094 1.95127,-6.34l-4.48944,-4.48935c-2.33926,2.98518 -3.73771,6.74301 -3.73771,10.82935c0,9.70717 7.86904,17.57612 17.57621,17.57612c4.08652,0 7.844,-1.39846 10.82909,-3.7378l-4.48935,-4.48917c-1.80898,1.2304 -3.99163,1.95118 -6.33974,1.95118z"/>
 </g>
</svg>