<svg xmlns="http://www.w3.org/2000/svg" x="0px" y="0px" width="48px"
     height="48px" viewBox="0 0 48 48">
    <g transform="translate(0, 0)">
        <circle cx="23" cy="6" r="5" fill="#5a7a84"></circle>
        <path d="M18.721,33.777a6.478,6.478,0,0,1-1-.9L11.371,43.189a2.5,2.5,0,0,0,4.258,2.622l6.08-9.881Z"
              fill="#335262"></path>
        <path d="M36.029,23.285l-4.753-2.851-5.3-5.757a4.419,4.419,0,0,0-5.392-1.235l-8.4,3.73a2,2,0,0,0-.977.933l-3,6a2,2,0,0,0,3.578,1.79l2.679-5.359L18,18.967V28.5a4.487,4.487,0,0,0,1.89,3.654l7.389,5.325,1.787,7.593a2.5,2.5,0,1,0,4.868-1.144l-2-8.5a2.5,2.5,0,0,0-.968-1.453l-4.552-3.3A4.448,4.448,0,0,0,27,28.5V21.692l1.527,1.662a2.03,2.03,0,0,0,.444.361l5,3a2,2,0,0,0,2.058-3.43Z"
              fill="#5a7a84"></path>
    </g>
</svg>
