<svg xmlns="http://www.w3.org/2000/svg" viewBox="0 0 100 100">
    <circle cx="50" cy="50" r="50" fill="#4054b2"/>
    <g fill="#fff">
        <path d="M29.2 35c0-2.8 2.2-5 5-5s5 2.2 5 5-2.2 5-5 5-5-2.2-5-5zm5 3c1.7 0 3-1.3 3-3s-1.3-3-3-3-3 1.3-3 3 1.3 3 3 3z"/>
        <path d="M68.9 66.9c-.6-.6-1.5-.6-2.1 0-.6.6-.6 1.5 0 2.1l5 5c.3.3.7.4 1.1.4.4 0 .8-.1 1.1-.4.6-.6.6-1.5 0-2.1l-5.1-5z"/>
        <path d="M50 22.9c-15 0-27.1 12.2-27.1 27.1 0 15 12.2 27.1 27.1 27.1S77.1 65 77.1 50c0-15-12.1-27.1-27.1-27.1zm0 50c-12.6 0-22.9-10.3-22.9-22.9S37.4 27.1 50 27.1 72.9 37.4 72.9 50 62.6 72.9 50 72.9z"/>
        <path d="M62.5 51.5h-11v-11c0-1.1-.9-2-2-2s-2 .9-2 2v13c0 1.1.9 2 2 2h13c1.1 0 2-.9 2-2s-.9-2-2-2z"/>
    </g>
</svg>